<svg id="Capa_1" enable-background="new 0 0 500.492 500.492" height="512" viewBox="0 0 500.492 500.492" width="512" xmlns="http://www.w3.org/2000/svg"><g><path d="m373.479 461.563v27.389c0 6.374-5.167 11.54-11.54 11.54h-224.385c-6.373 0-11.54-5.167-11.54-11.54v-27.389-58.146h247.465z" fill="#efedee"/><path d="m473.55 392.874 5.498 25.319c1.456 6.703-2.685 13.349-9.344 14.996l-34.403 8.512c-6.788 1.679-13.653-2.454-15.345-9.238l-6.354-25.477-6.115-25.532 60.553-12.615z" fill="#efedee"/><path d="m86.89 406.986-6.354 25.477c-1.692 6.784-8.558 10.918-15.345 9.238l-34.403-8.512c-6.659-1.648-10.799-8.293-9.344-14.996l5.498-25.319 11.014-36.152 58.558 15.759z" fill="#efedee"/><g fill="#e4e1e5"><path d="m249.746 433.063c-4.143 0-7.5 3.358-7.5 7.5v59.929h15v-59.929c0-4.142-3.357-7.5-7.5-7.5z"/><path d="m218.831 433.063c-4.143 0-7.5 3.358-7.5 7.5v59.929h15v-59.929c0-4.142-3.357-7.5-7.5-7.5z"/><path d="m187.916 433.063c-4.143 0-7.5 3.358-7.5 7.5v59.929h15v-59.929c0-4.142-3.357-7.5-7.5-7.5z"/><path d="m157.001 433.063c-4.143 0-7.5 3.358-7.5 7.5v59.929h15v-59.929c0-4.142-3.358-7.5-7.5-7.5z"/><path d="m280.661 433.063c-4.143 0-7.5 3.358-7.5 7.5v59.929h15v-59.929c0-4.142-3.357-7.5-7.5-7.5z"/><path d="m311.576 433.063c-4.143 0-7.5 3.358-7.5 7.5v59.929h15v-59.929c0-4.142-3.357-7.5-7.5-7.5z"/><path d="m342.491 433.063c-4.143 0-7.5 3.358-7.5 7.5v59.929h15v-59.929c0-4.142-3.357-7.5-7.5-7.5z"/></g><g><path d="m57.014 361.851-19.058-5.129-11.013 36.152-5.498 25.318c-1.456 6.704 2.685 13.349 9.344 14.997l34.403 8.512c6.788 1.679 13.653-2.454 15.345-9.238l.413-1.656-26.796-6.63c-2.712-.671-5.003-2.171-6.668-4.166-3.222-3.86.355-9.618 5.262-8.518l25.121 5.631c1.628.367 3.294.553 4.954.553.477 0 .947-.033 1.417-.063l2.651-10.628 9.624-34.505z" fill="#e4e1e5"/><path d="m384.076 296.269c.47 4.89.71 9.82.71 14.74v134.34c0 8.96-7.26 16.21-16.21 16.21h-236.66c-8.95 0-16.21-7.25-16.21-16.21v-134.34c0-4.92.24-9.85.71-14.74l-21.41 101.5c-1.43 6.81-8.15 11.13-14.94 9.6l-46.35-10.39c-6.56-1.47-10.77-7.86-9.54-14.47l40.95-219.34c5.19-27.77 20.06-52.8 41.97-70.63l36.96-30.07 49.96-33.32h112.46l49.96 33.32 36.96 30.07c21.91 17.83 36.78 42.86 41.97 70.63l40.95 219.34c1.23 6.61-2.98 13-9.54 14.47l-46.35 10.39c-6.79 1.53-13.51-2.79-14.94-9.6z" fill="#e79098"/></g><g><path d="m356.436 62.469-7.331-4.889h-82.245l-76.945 23.898v-49.594l-45.858 30.584-36.96 30.07c-21.91 17.83-36.78 42.86-41.97 70.63l-40.95 219.34c-1.23 6.61 2.98 13 9.54 14.47l28.722 6.438 38.631-206.926c5.19-27.77 20.06-52.8 41.97-70.63 10.349-8.42 25.018-8.986 35.985-1.388l55.34 38.337c4.546 3.15 9.873 4.815 15.404 4.815h.001c5.476 0 10.759-1.635 15.28-4.729l81.215-55.603c12.059-8.355 20.781-19.574 25.671-32.213z" fill="#e17983"/><g><g><path d="m294.166 264.708c-4.143 0-7.5-3.358-7.5-7.5v-82.187c0-14.689 3.961-29.132 11.456-41.767l24.667-42.285 16.165-29.688c1.98-3.638 6.533-4.982 10.174-3 3.638 1.981 4.98 6.536 3 10.173l-16.218 29.786c-.035.065-.071.129-.108.193l-24.751 42.427c-6.149 10.367-9.385 22.163-9.385 34.161v82.187c0 4.142-3.357 7.5-7.5 7.5z" fill="#efedee"/></g></g><path d="m349.128 58.282c-.597-.325-1.22-.552-1.851-.702h-3.467c-1.999.475-3.797 1.757-4.856 3.703l-16.165 29.687-24.667 42.285c-2.027 3.416-3.785 6.968-5.287 10.618l27.403-18.761 15.564-26.679c.037-.064.073-.128.108-.193l16.218-29.785c1.98-3.638.638-8.192-3-10.173z" fill="#e4e1e5"/><g><path d="m205.04 260.574c-4.143 0-7.5-3.358-7.5-7.5v-78.053c0-11.998-3.235-23.794-9.356-34.114-.076-.127-.147-.257-.216-.389l-38.478-74.61c-1.898-3.681-.453-8.205 3.229-10.104 3.682-1.898 8.204-.453 10.104 3.229l38.378 74.418c7.419 12.587 11.34 26.958 11.34 41.571v78.053c-.001 4.141-3.358 7.499-7.501 7.499z" fill="#efedee"/></g><path d="m206.117 143.24c-1.415-3.359-3.056-6.631-4.917-9.79l-38.378-74.418c-1.488-2.883-4.584-4.386-7.626-3.994l-5.536 3.692c-1.226 2.135-1.383 4.826-.17 7.177l30.573 59.283z" fill="#e4e1e5"/><path d="m334.876 90.852c40.178-27.833 20.481-90.852-28.396-90.852h-112.468c-48.877 0-68.573 63.019-28.395 90.852l80.14 55.518c2.403 1.665 5.584 1.673 7.996.022z" fill="#e79098"/></g><g><path d="m185.548 56.234c-7.815-5.414-6.94-12.757-5.723-16.652s4.679-10.43 14.187-10.43h112.468c9.508 0 12.97 6.535 14.187 10.43 1.215 3.886 2.089 11.203-5.667 16.613l-51.866 35.509c-7.991 5.471-18.529 5.442-26.49-.073z" fill="#e17983"/><path d="m312.827 327.756.362 6.232c1.129 19.436 11.411 37.183 27.71 47.83 1.617 1.056 2.592 2.857 2.592 4.789v34.735c0 3.961-3.211 7.172-7.172 7.172h-172.146c-3.961 0-7.172-3.211-7.172-7.172v-34.735c0-1.931.975-3.733 2.592-4.789 16.299-10.647 26.581-28.395 27.71-47.83l.362-6.232c.141-2.425 2.148-4.319 4.577-4.319h116.008c2.429 0 4.436 1.894 4.577 4.319z" fill="#efedee"/><g fill="#e4e1e5"><circle cx="205.04" cy="257.208" r="15.134"/><circle cx="294.166" cy="257.208" r="15.134"/></g></g></g></svg>